<svg width="1051" height="932" viewBox="0 0 1051 932" fill="none" xmlns="http://www.w3.org/2000/svg">
<path d="M125.9 820.8V822.4C114.8 822.4 103.7 822.4 92.7 822.4V820.8L100.7 815.9L80.9 767.3H30.5L10.3 817.4L16 820.8V822.4C10.7 822.4 5.3 822.4 0 822.4V820.8L8 815.9L54.3 701.3L49.2 688.6C55 688.6 60.7 688.6 66.5 688.6L117.9 815.8L125.9 820.8ZM79.9 764.6L55.7 704.9L31.6 764.6H79.9Z" fill="#E5ECEA"/>
<path d="M277.501 710.6H273.701L262.201 691.4H226.901V816L234.901 820.9V822.5C224.201 822.5 213.601 822.5 202.901 822.5V820.9L210.901 816V691.4H175.701L164.201 710.6H160.301V688.7C199.401 688.7 238.501 688.7 277.601 688.7V710.6H277.501Z" fill="#E5ECEA"/>
<path d="M442.1 688.7V710.6H438.2L426.7 691.4H373.3L367.1 695.1V751.9H408.4L412.4 745.2H414C414 750.5 414 755.9 414 761.2H412.4L408.4 754.5H367.1V815.9L373.3 819.7H426.7L438.2 800.5H442.1V822.4C409.1 822.4 376.1 822.4 343.1 822.4V820.8L351.1 815.9V695L343.1 690.2V688.6C371.5 688.6 399.9 688.6 428.3 688.6H442.1V688.7Z" fill="#E5ECEA"/>
<path d="M539.6 690.3L531.6 695.1V819.8H591.2L602.7 800.6H606.5V822.5C573.6 822.5 540.6 822.5 507.6 822.5V820.9L515.6 816V695L507.6 690.2V688.6C518.3 688.6 528.9 688.6 539.6 688.6V690.3Z" fill="#E5ECEA"/>
<path d="M704 690.3L696 695.1V816L704 820.9V822.5C693.3 822.5 682.7 822.5 672 822.5V820.9L680 816V695L672 690.2V688.6C682.7 688.6 693.3 688.6 704 688.6V690.3Z" fill="#E5ECEA"/>
<path d="M868.5 688.7V710.6H864.6L853.1 691.4H799.7L793.5 695.1V751.9H834.8L838.8 745.2H840.4C840.4 750.5 840.4 755.9 840.4 761.2H838.8L834.8 754.5H793.5V815.9L799.7 819.7H853.1L864.6 800.5H868.5V822.4C835.5 822.4 802.5 822.4 769.5 822.4V820.8L777.5 815.9V695L769.5 690.2V688.6C797.9 688.6 826.3 688.6 854.7 688.6H868.5V688.7Z" fill="#E5ECEA"/>
<path d="M1016.2 774.3L1042.1 815.9L1050.1 820.8V822.4C1038.5 822.4 1026.9 822.4 1015.2 822.4V820.8L1023.2 815.9L995 770.5C990.8 771 986.5 771.3 982 771.4H958V815.9L966 820.8V822.4C955.3 822.4 944.7 822.4 934 822.4V820.8L942 815.9V695L934 690.2V688.6C950 688.6 966 688.6 982 688.6C991.5 688.7 1000.2 689.5 1008.3 691.1C1016.3 692.7 1022.9 696.1 1028.1 701.3C1033.3 706.5 1036.4 714.5 1037.4 725.4C1038.2 738.3 1035.3 748.2 1028.7 755.2C1022.1 762.2 1013.4 766.8 1002.5 769.1L1016.2 774.3ZM982 768.8C993.7 768.4 1003.4 764 1011.1 755.8C1018.8 747.6 1022.3 737.6 1021.4 725.8C1020 715.4 1015.7 707.1 1008.4 701C1001.1 694.9 992.3 691.7 982 691.3H958V768.7H982V768.8Z" fill="#E5ECEA"/>
<path d="M315.699 895.7H320.799V926.7H339.999V931.1H315.799V895.7H315.699Z" fill="url(#paint0_linear_83_766)"/>
<path d="M371.1 895.7H376.2V931.1H371.1V895.7Z" fill="url(#paint1_linear_83_766)"/>
<path d="M442.498 895.7L426.998 931.2H421.998L406.398 895.8H411.898L424.698 924.9L437.598 895.8H442.498V895.7Z" fill="url(#paint2_linear_83_766)"/>
<path d="M472.398 895.7H477.498V931.1H472.398V895.7Z" fill="url(#paint3_linear_83_766)"/>
<path d="M535.9 922.3H517.1L513.2 931.2H508L524 895.8H529L545.1 931.2H539.8L535.9 922.3ZM534.2 918.3L526.6 900.9L519 918.3H534.2Z" fill="url(#paint4_linear_83_766)"/>
<path d="M606.2 895.7V931.1H602L580.7 904.7V931.1H575.6V895.7H579.8L601.1 922.1V895.7H606.2Z" fill="url(#paint5_linear_83_766)"/>
<path d="M672.7 895.7V931.1H668.5L647.2 904.7V931.1H642.1V895.7H646.3L667.6 922.1V895.7H672.7Z" fill="url(#paint6_linear_83_766)"/>
<path d="M734.3 926.8V931.2H708.6V895.8H733.6V900.2H713.7V911H731.5V915.3H713.7V926.7H734.3V926.8Z" fill="url(#paint7_linear_83_766)"/>
<path d="M524 125.3L704 458.4C708.4 466.5 707.3 476.1 701.2 483.3H829.6L796.2 469.5C784.8 464.8 775.7 456.7 770.6 446.8L537.5 0L487.4 110.9L492.3 110.4C505.6 108.9 518.4 114.9 524 125.3Z" fill="url(#paint8_linear_83_766)"/>
<path d="M852.501 588.2C784.101 607.4 687.801 608.6 631.001 518.7L488.001 239.3C462.601 182 389.901 113.8 273.301 178.1C339.601 156.8 379.201 199.6 395.001 230.3L414.901 267.4L338.501 436.7C330.701 453.7 316.601 468.1 298.401 477.6L288.901 482.6V483.7C313.901 483.7 384.801 483.7 409.801 483.7V482.6L383.501 474.4C373.701 471.3 368.701 461.9 372.501 453.6L437.401 309.6L438.401 311.4C464.701 360.5 543.901 512.3 566.001 541.5C598.301 584.1 645.201 608.6 705.401 614.3C719.301 615.6 733.201 616 746.701 615.5C784.201 614.1 819.901 605.6 853.301 590.3C854.501 589.7 853.801 587.8 852.501 588.2Z" fill="url(#paint9_linear_83_766)"/>
<defs>
<linearGradient id="paint0_linear_83_766" x1="327.82" y1="885.867" x2="327.82" y2="956.426" gradientUnits="userSpaceOnUse">
<stop stop-color="white"/>
<stop offset="1" stop-color="#6D6F71"/>
</linearGradient>
<linearGradient id="paint1_linear_83_766" x1="373.62" y1="885.867" x2="373.62" y2="956.426" gradientUnits="userSpaceOnUse">
<stop stop-color="white"/>
<stop offset="1" stop-color="#6D6F71"/>
</linearGradient>
<linearGradient id="paint2_linear_83_766" x1="424.452" y1="885.867" x2="424.452" y2="956.426" gradientUnits="userSpaceOnUse">
<stop stop-color="white"/>
<stop offset="1" stop-color="#6D6F71"/>
</linearGradient>
<linearGradient id="paint3_linear_83_766" x1="474.884" y1="885.867" x2="474.884" y2="956.426" gradientUnits="userSpaceOnUse">
<stop stop-color="white"/>
<stop offset="1" stop-color="#6D6F71"/>
</linearGradient>
<linearGradient id="paint4_linear_83_766" x1="526.58" y1="885.867" x2="526.58" y2="956.426" gradientUnits="userSpaceOnUse">
<stop stop-color="white"/>
<stop offset="1" stop-color="#6D6F71"/>
</linearGradient>
<linearGradient id="paint5_linear_83_766" x1="590.983" y1="885.867" x2="590.983" y2="956.426" gradientUnits="userSpaceOnUse">
<stop stop-color="white"/>
<stop offset="1" stop-color="#6D6F71"/>
</linearGradient>
<linearGradient id="paint6_linear_83_766" x1="657.414" y1="885.867" x2="657.414" y2="956.426" gradientUnits="userSpaceOnUse">
<stop stop-color="white"/>
<stop offset="1" stop-color="#6D6F71"/>
</linearGradient>
<linearGradient id="paint7_linear_83_766" x1="721.465" y1="885.867" x2="721.465" y2="956.426" gradientUnits="userSpaceOnUse">
<stop stop-color="white"/>
<stop offset="1" stop-color="#6D6F71"/>
</linearGradient>
<linearGradient id="paint8_linear_83_766" x1="658.534" y1="-19.3247" x2="658.534" y2="709.896" gradientUnits="userSpaceOnUse">
<stop stop-color="white"/>
<stop offset="1" stop-color="#6D6F71"/>
</linearGradient>
<linearGradient id="paint9_linear_83_766" x1="563.623" y1="-19.3247" x2="563.623" y2="709.896" gradientUnits="userSpaceOnUse">
<stop stop-color="white"/>
<stop offset="1" stop-color="#6D6F71"/>
</linearGradient>
</defs>
</svg>
